<svg width="218" height="71" viewBox="0 0 218 71" fill="none" xmlns="http://www.w3.org/2000/svg">
<g clip-path="url(#clip0_198_369)">
<path d="M50.8945 13.5884C48.3117 9.30207 44.7037 5.9653 40.0702 3.57813C35.4368 1.19095 30.0811 -0.00175981 24.003 1.94885e-06H0V56.9514H8.13667V7.07697H23.5168C28.233 7.07697 32.3132 7.97194 35.7575 9.76189C36.7498 10.2753 37.7006 10.8656 38.6009 11.5272C43.2238 11.6558 47.4141 12.5032 51.1719 14.0694C51.0821 13.9082 50.9843 13.7496 50.8945 13.5884Z" fill="url(#paint0_linear_198_369)"/>
<path d="M50.8943 13.5884C48.3116 9.30207 44.7035 5.9653 40.0701 3.57813C35.4367 1.19095 30.0809 -0.00175981 24.0029 1.94885e-06H19.624V7.07697H23.5166C28.2328 7.07697 32.3131 7.97194 35.7573 9.76189C36.7497 10.2753 37.7004 10.8656 38.6008 11.5272C43.2236 11.6558 47.4139 12.5032 51.1718 14.0694C51.0819 13.9082 50.9841 13.7496 50.8943 13.5884Z" fill="url(#paint1_linear_198_369)"/>
<path d="M54.7604 28.477C54.7604 34.1146 53.4717 39.0766 50.8942 43.3629C48.3168 47.6493 44.7052 50.986 40.0594 53.3732C35.4225 55.7569 30.0668 56.9496 23.9922 56.9514H13.3213V49.8744H23.5166C28.2328 49.8744 32.313 48.9803 35.7572 47.1921C39.096 45.5016 41.8796 42.8886 43.7776 39.6632C45.6715 36.4357 46.6193 32.707 46.6211 28.477C46.6651 25.4538 46.1054 22.4521 44.9747 19.6479C46.3942 20.0495 47.7693 20.594 49.0788 21.2732C51.1563 22.3366 53.034 23.7519 54.6283 25.4565C54.7164 26.443 54.7604 27.4499 54.7604 28.477Z" fill="url(#paint2_linear_198_369)"/>
<path d="M54.7604 28.477C54.7604 34.1146 53.4717 39.0766 50.8942 43.3629C48.3168 47.6493 44.7052 50.986 40.0594 53.3732C35.4225 55.7569 30.0668 56.9496 23.9922 56.9514H13.3213V49.8744H23.5166C28.2328 49.8744 32.313 48.9803 35.7572 47.1921C39.096 45.5016 41.8796 42.8886 43.7776 39.6632C45.6715 36.4357 46.6193 32.707 46.6211 28.477C46.6651 25.4538 46.1054 22.4521 44.9747 19.6479C46.3942 20.0495 47.7693 20.594 49.0788 21.2732C51.1563 22.3366 53.034 23.7519 54.6283 25.4565C54.7164 26.443 54.7604 27.4499 54.7604 28.477Z" fill="url(#paint3_linear_198_369)"/>
<path d="M68.0819 39.9884C68.0819 45.626 66.7932 50.588 64.2158 54.8743C61.6383 59.1607 58.0267 62.4975 53.381 64.8846C48.7423 67.2683 43.3865 68.461 37.3138 68.4628H13.3213V61.3858H36.8407C41.5587 61.3858 45.6389 60.4917 49.0814 58.7035C52.4189 57.0112 55.202 54.3986 57.1018 51.1747C58.9957 47.9471 59.9435 44.2184 59.9453 39.9884C59.9453 35.702 58.9974 31.9583 57.1018 28.7572C56.4 27.5722 55.5734 26.4657 54.6362 25.4566C53.0419 23.7521 51.1643 22.3367 49.0867 21.2733C47.7772 20.5941 46.4021 20.0496 44.9827 19.6481C42.3334 18.9162 39.5944 18.5604 36.846 18.591H21.4659V49.8745H13.3213V11.5061H37.3243C37.7551 11.5061 38.1805 11.5061 38.6007 11.5272C43.2236 11.6559 47.4139 12.5033 51.1717 14.0695C51.9328 14.376 52.6727 14.716 53.3915 15.0895C58.0302 17.4767 61.6418 20.8117 64.2263 25.0945C66.8108 29.3773 68.096 34.342 68.0819 39.9884Z" fill="url(#paint4_linear_198_369)"/>
<path d="M91.0073 35.7338V43.2045H86.0576V39.9858H73.7588V26.0142H79.0123V35.7338H83.3251V26.0142H88.5787V35.7338H91.0073Z" fill="#10F8B7"/>
<path d="M108.166 24.9519V39.9832H103.155V33.8919L93.1636 41.0455V26.0142H98.174V32.1055L108.166 24.9519Z" fill="#10F8B7"/>
<path d="M128.786 29.1113C127.968 27.9654 126.833 27.0836 125.52 26.5744C124.648 26.221 123.735 25.9769 122.803 25.8477V22.9778H117.914V25.845C116.983 25.9765 116.072 26.2215 115.2 26.5744C113.889 27.0844 112.755 27.9661 111.937 29.1113C111.203 30.2698 110.813 31.6129 110.813 32.9841C110.813 34.3554 111.203 35.6984 111.937 36.8569C112.754 38.0021 113.888 38.8831 115.2 39.3912C116.07 39.751 116.982 40.0005 117.914 40.1338V43.0406H122.803V40.1338C123.736 40.0062 124.649 39.7611 125.52 39.4044C126.833 38.897 127.968 38.016 128.786 36.8701C129.521 35.7122 129.912 34.3689 129.912 32.9973C129.912 31.6257 129.521 30.2825 128.786 29.1245V29.1113ZM117.914 35.8051C117.761 35.7708 117.613 35.7311 117.476 35.6862C116.862 35.5264 116.321 35.163 115.94 34.6556C115.643 34.1546 115.486 33.5827 115.486 33C115.486 32.4173 115.643 31.8454 115.94 31.3444C116.32 30.8313 116.861 30.4594 117.476 30.2873C117.613 30.2424 117.761 30.1975 117.914 30.1631V35.8051ZM124.761 34.6556C124.374 35.1617 123.829 35.5243 123.213 35.6862C123.083 35.7258 122.949 35.7681 122.803 35.7972V30.1816C122.946 30.2133 123.083 30.253 123.213 30.2952C123.83 30.4696 124.374 30.8407 124.761 31.3523C125.069 31.8498 125.232 32.4231 125.232 33.0079C125.232 33.5927 125.069 34.166 124.761 34.6635V34.6556Z" fill="#10F8B7"/>
<path d="M148.114 28.8233C147.539 27.7844 146.694 26.9192 145.67 26.3181C144.712 25.7602 143.623 25.4674 142.515 25.4698C141.385 25.4388 140.274 25.7683 139.344 26.4106C138.693 26.8819 138.152 27.4887 137.758 28.189V26.0142H132.491V46.6663H137.745V37.8029C138.136 38.5072 138.678 39.117 139.33 39.5894C140.261 40.2314 141.371 40.5617 142.502 40.5328C143.61 40.5333 144.699 40.2387 145.657 39.6792C146.685 39.0766 147.53 38.2062 148.101 37.1608C148.741 36.0456 149.061 34.6591 149.061 33.0013C149.061 31.3435 148.745 29.9508 148.114 28.8233ZM143.152 34.5842C142.905 35.0144 142.537 35.3626 142.095 35.5858C141.631 35.8141 141.12 35.9291 140.604 35.9214C140.135 35.9199 139.673 35.8105 139.254 35.6016C138.815 35.3858 138.442 35.0552 138.176 34.645C137.896 34.1431 137.75 33.5782 137.75 33.0039C137.75 32.4296 137.896 31.8648 138.176 31.3628C138.442 30.9533 138.815 30.6237 139.254 30.4089C139.673 30.1996 140.135 30.0911 140.604 30.0917C141.12 30.0848 141.63 30.1979 142.095 30.4221C142.534 30.6434 142.901 30.9865 143.152 31.4104C143.41 31.8991 143.544 32.4434 143.544 32.996C143.544 33.5486 143.41 34.0929 143.152 34.5816V34.5842Z" fill="#10F8B7"/>
<path d="M152.017 29.1111C152.738 28.0089 153.753 27.1309 154.948 26.5769C156.274 25.9862 157.71 25.6809 159.162 25.6809C160.613 25.6809 162.049 25.9862 163.375 26.5769C164.567 27.136 165.581 28.0129 166.306 29.1111C167.011 30.2798 167.384 31.6189 167.384 32.9839C167.384 34.3489 167.011 35.6881 166.306 36.8567C165.582 37.9562 164.568 38.8335 163.375 39.391C162.049 39.9817 160.613 40.2869 159.162 40.2869C157.71 40.2869 156.274 39.9817 154.948 39.391C154.052 38.9381 153.259 38.3046 152.62 37.5304C151.98 36.7562 151.508 35.8581 151.233 34.8924C150.958 33.9268 150.885 32.9147 151.02 31.9197C151.155 30.9247 151.495 29.9685 152.017 29.1111ZM156.74 34.6607C156.973 35.0949 157.326 35.4527 157.757 35.6913C158.187 35.9219 158.667 36.0426 159.155 36.0426C159.643 36.0426 160.123 35.9219 160.553 35.6913C160.986 35.4503 161.343 35.0933 161.584 34.6607C161.844 34.1477 161.98 33.5804 161.98 33.0051C161.98 32.4297 161.844 31.8624 161.584 31.3495C161.214 30.7038 160.605 30.2304 159.888 30.0324C159.171 29.8343 158.405 29.9278 157.757 30.2924C157.326 30.543 156.974 30.9091 156.74 31.3495C156.491 31.8659 156.362 32.4318 156.362 33.0051C156.362 33.5783 156.491 34.1442 156.74 34.6607Z" fill="#10F8B7"/>
<path d="M183.299 34.0556C182.812 33.5267 182.176 33.1581 181.475 32.9985C181.327 32.9589 181.174 32.9245 181.018 32.8928C181.663 32.6672 182.239 32.2795 182.691 31.7671C183.148 31.2186 183.387 30.52 183.359 29.8062C183.398 29.0181 183.161 28.241 182.691 27.6076C182.237 27.0442 181.632 26.6224 180.947 26.392C180.181 26.1312 179.377 26.0026 178.568 26.0114H170.574V39.9804H179.472C181.07 39.9804 182.215 39.6113 182.907 38.8731C183.602 38.1525 183.982 37.186 183.964 36.1855C183.967 35.2765 183.742 34.5683 183.299 34.0556ZM177.316 29.1033C177.477 29.0915 177.64 29.117 177.79 29.1779C177.94 29.2389 178.075 29.3336 178.182 29.4548C178.322 29.6205 178.415 29.8204 178.453 30.034C178.49 30.2476 178.469 30.4672 178.394 30.6704C178.286 30.9423 178.081 31.164 177.818 31.2914C177.658 31.3552 177.487 31.3858 177.316 31.3812H175.582V29.1033H177.316ZM178.774 36.4842C178.571 36.7484 178.185 36.8779 177.619 36.8779H175.582V34.4493H177.619C177.857 34.4432 178.094 34.4789 178.32 34.555C178.483 34.6121 178.632 34.7021 178.758 34.8193C178.864 34.9218 178.947 35.0451 179.002 35.1813C179.052 35.323 179.078 35.4723 179.078 35.6227C179.08 35.9388 178.972 36.2458 178.774 36.4921V36.4842Z" fill="#10F8B7"/>
<path d="M199.469 27.6842C198.807 26.9552 197.963 26.4152 197.024 26.1198C195.887 25.7505 194.697 25.5719 193.502 25.5913C192.279 25.5867 191.062 25.7549 189.887 26.0907C188.843 26.3863 187.82 26.7464 186.821 27.1689L188.489 30.6308C188.817 30.4398 189.164 30.2823 189.524 30.1604C190.043 29.9711 190.572 29.814 191.11 29.69C191.732 29.5466 192.369 29.4757 193.007 29.4786C193.777 29.4786 194.36 29.6548 194.754 30.0071C194.948 30.1803 195.101 30.3937 195.203 30.6325C195.306 30.8713 195.354 31.1296 195.346 31.3892V32.3194L195.27 32.2851C194.717 32.0519 194.142 31.8749 193.554 31.7565C192.915 31.6251 192.263 31.5587 191.61 31.5583C190.522 31.5375 189.441 31.7231 188.423 32.1054C187.589 32.4179 186.858 32.9536 186.308 33.6539C185.796 34.339 185.528 35.1768 185.55 36.0323C185.527 36.8446 185.754 37.6444 186.2 38.3235C186.653 38.976 187.285 39.4829 188.021 39.7822C188.874 40.1292 189.79 40.2991 190.711 40.2817C191.606 40.2966 192.495 40.1265 193.322 39.7822C194.058 39.476 194.694 38.9709 195.159 38.3235C195.231 38.2238 195.297 38.1196 195.357 38.0116V39.9778H200.378V30.2C200.399 29.2774 200.075 28.3801 199.469 27.6842ZM194.958 35.9319C194.704 36.3198 194.334 36.6169 193.901 36.7802C193.461 36.9566 192.992 37.0463 192.519 37.0444C192.23 37.0481 191.943 37.0025 191.67 36.9097C191.428 36.8336 191.212 36.6918 191.047 36.5001C190.889 36.3014 190.809 36.0529 190.819 35.7998C190.819 35.5139 190.912 35.2357 191.084 35.007C191.278 34.7601 191.535 34.571 191.829 34.4599C192.187 34.3236 192.569 34.2572 192.952 34.2644C193.6 34.2432 194.247 34.3326 194.865 34.5286C195.024 34.5852 195.179 34.6514 195.33 34.7268C195.309 35.1533 195.18 35.5676 194.958 35.9319Z" fill="#10F8B7"/>
<path d="M210.052 26.0142C209.108 26.0136 208.17 26.1625 207.272 26.4555C206.426 26.7129 205.666 27.1952 205.073 27.8508C204.503 28.4903 204.222 29.3544 204.222 30.4485C204.181 31.4028 204.483 32.3404 205.073 33.0911C205.52 33.6338 206.079 34.0729 206.712 34.3781L203.07 39.9831H208.445L211.188 35.126H212.663V39.9831H217.919V26.0142H210.052ZM212.663 31.7857H210.903C210.623 31.7895 210.343 31.7638 210.068 31.709C209.871 31.6715 209.688 31.58 209.539 31.4448C209.423 31.2973 209.359 31.1148 209.359 30.9268C209.359 30.7388 209.423 30.5563 209.539 30.4089C209.687 30.2769 209.871 30.193 210.068 30.1684C210.344 30.1226 210.623 30.1014 210.903 30.105H212.663V31.7857Z" fill="#10F8B7"/>
<path d="M90.5842 63.9384H84.5088L78.7399 56.8562V63.9384H73.7295V49.9695H78.7399V54.8557L83.7794 49.9695H89.9764L84.0516 55.7383L90.5842 63.9384Z" fill="#2BFF55"/>
<path d="M105.449 51.6398C104.788 50.9094 103.944 50.3693 103.005 50.0754C101.868 49.7061 100.677 49.5275 99.4819 49.5468C98.2591 49.5419 97.0419 49.7109 95.8668 50.0489C94.8231 50.3457 93.7986 50.7058 92.7987 51.1271L94.4715 54.5916C94.7976 54.3984 95.143 54.2399 95.5021 54.1186C96.021 53.9309 96.5504 53.7739 97.0877 53.6482C97.7095 53.5023 98.3464 53.4305 98.9851 53.4341C99.7514 53.4341 100.335 53.6112 100.732 53.9627C100.926 54.1355 101.08 54.3489 101.182 54.5878C101.284 54.8266 101.333 55.0851 101.324 55.3448V56.275L101.245 56.2406C100.693 56.0059 100.12 55.8288 99.5321 55.7121C98.8919 55.5822 98.2404 55.5159 97.5871 55.5139C96.4996 55.4913 95.4178 55.6769 94.4001 56.0609C93.5621 56.3717 92.826 56.9075 92.2728 57.6095C91.7601 58.2947 91.493 59.1324 91.5144 59.9879C91.4908 60.8022 91.7187 61.6041 92.1671 62.2843C92.6219 62.9353 93.2551 63.4409 93.9905 63.7404C94.8417 64.0898 95.7555 64.2607 96.6754 64.2425C97.572 64.2579 98.462 64.087 99.289 63.7404C100.022 63.4311 100.657 62.9277 101.126 62.2843C101.197 62.1831 101.263 62.0781 101.324 61.9699V63.9386H106.345V54.1609C106.371 53.2382 106.052 52.339 105.449 51.6398ZM100.93 59.8822C100.676 60.2705 100.306 60.5692 99.873 60.7357C99.4338 60.9096 98.9659 60.9993 98.4936 61C98.2043 61.0014 97.9168 60.955 97.6426 60.8626C97.402 60.7855 97.1872 60.6438 97.0216 60.453C96.8625 60.2562 96.7808 60.0081 96.7917 59.7553C96.7888 59.4649 96.8817 59.1816 97.056 58.9493C97.248 58.7012 97.5064 58.5124 97.8012 58.4049C98.1588 58.2654 98.5405 58.198 98.9243 58.2067C99.5724 58.1869 100.219 58.2762 100.838 58.471C100.998 58.5269 101.154 58.5931 101.305 58.6692C101.283 59.0984 101.154 59.5153 100.93 59.8822Z" fill="#2BFF55"/>
<path d="M126.844 53.0642C126.026 51.9184 124.89 51.0373 123.577 50.5299C122.706 50.1747 121.793 49.9297 120.861 49.8006V46.9307H115.972V49.7979C115.039 49.9286 114.125 50.1745 113.253 50.5299C111.941 51.038 110.806 51.919 109.989 53.0642C109.255 54.2227 108.866 55.5657 108.866 56.937C108.866 58.3082 109.255 59.6513 109.989 60.8098C110.805 61.9565 111.94 62.8386 113.253 63.3467C114.125 63.7012 115.039 63.9462 115.972 64.0761V66.983H120.861V64.0761C121.793 63.9499 122.706 63.7066 123.577 63.352C124.891 62.8446 126.027 61.9624 126.844 60.8151C127.577 59.6566 127.967 58.3135 127.967 56.9423C127.967 55.571 127.577 54.228 126.844 53.0695V53.0642ZM115.533 59.6417C114.918 59.4811 114.377 59.1157 113.998 58.6058C113.699 58.1059 113.541 57.5342 113.541 56.9515C113.541 56.3689 113.699 55.7972 113.998 55.2972C114.377 54.7833 114.918 54.4111 115.533 54.2402C115.677 54.1902 115.824 54.1479 115.972 54.1133V59.7474C115.824 59.7197 115.678 59.6845 115.533 59.6417ZM122.819 58.6058C122.433 59.1143 121.888 59.479 121.27 59.6417C121.141 59.6814 121.006 59.721 120.861 59.7527V54.1398C121.003 54.1741 121.141 54.2164 121.27 54.2587C121.888 54.4318 122.433 54.8032 122.819 55.3157C123.126 55.8128 123.289 56.3856 123.289 56.97C123.289 57.5544 123.126 58.1273 122.819 58.6243V58.6058Z" fill="#2BFF55"/>
<path d="M141.207 59.018C141.013 59.3529 140.755 59.6466 140.448 59.8821C140.129 60.1226 139.771 60.3084 139.391 60.4318C138.938 60.5684 138.466 60.6344 137.993 60.6273C137.501 60.6305 137.016 60.5106 136.582 60.2785C136.115 60.0165 135.745 59.6117 135.525 59.1237C135.365 58.7825 135.258 58.4189 135.208 58.0455H145.76C145.8 57.7831 145.82 57.5181 145.821 57.2527V56.7083C145.861 55.3919 145.557 54.0877 144.941 52.924C144.336 51.8672 143.418 51.0242 142.314 50.5113C141.149 49.9458 139.706 49.663 137.985 49.663C136.589 49.6247 135.2 49.872 133.902 50.3898C132.85 50.8196 131.932 51.523 131.244 52.4272C130.585 53.3232 130.15 54.3632 129.973 55.461C129.93 55.7015 129.901 55.9472 129.88 56.1877C129.859 56.4282 129.849 56.6845 129.849 56.9461C129.828 58.2578 130.153 59.5518 130.789 60.6987C131.442 61.8231 132.415 62.7268 133.585 63.2937C134.818 63.9227 136.347 64.2372 138.17 64.2372C139.377 64.2679 140.579 64.089 141.725 63.7086C142.647 63.3869 143.494 62.8807 144.214 62.2208C144.914 61.5697 145.5 60.806 145.947 59.9614L141.207 59.018ZM135.514 54.4911C135.699 54.0382 136.017 53.652 136.426 53.3839C136.86 53.1216 137.36 52.9904 137.866 53.006C138.288 52.9879 138.706 53.0789 139.082 53.2702C139.408 53.4535 139.672 53.7295 139.84 54.063C140.039 54.4626 140.163 54.8952 140.205 55.3394H135.284C135.327 55.0485 135.404 54.7636 135.514 54.4911Z" fill="#2BFF55"/>
<path d="M163.159 59.9534L156.24 48.9072L149.348 59.9534H146.613V66.6631H151.653V63.9385H161.01V66.671H165.899V59.9534H163.159ZM154.47 59.9534L156.24 55.8494L158.029 59.9534H154.47Z" fill="#2BFF55"/>
<path d="M184.527 52.776C183.953 51.7362 183.109 50.8713 182.083 50.2734C181.12 49.7117 180.026 49.417 178.911 49.4198C177.781 49.3898 176.67 49.7202 175.74 50.3633C175.087 50.834 174.546 51.4431 174.155 52.147V49.9695H168.904V70.619H174.157V61.7504C174.547 62.4577 175.088 63.0697 175.743 63.5421C176.673 64.1854 177.784 64.515 178.914 64.4829C180.028 64.4877 181.123 64.1948 182.085 63.6346C183.114 63.0324 183.96 62.1607 184.53 61.1135C185.166 60.0018 185.485 58.6145 185.486 56.9514C185.488 55.2883 185.168 53.8965 184.527 52.776ZM179.564 58.5316C179.318 58.9618 178.95 59.3101 178.507 59.5332C178.043 59.7591 177.533 59.8731 177.017 59.8662C176.548 59.8666 176.086 59.758 175.666 59.5491C175.228 59.3327 174.856 59.0034 174.588 58.5951C174.309 58.0931 174.163 57.5283 174.163 56.954C174.163 56.3797 174.309 55.8149 174.588 55.3129C174.856 54.9038 175.228 54.5736 175.666 54.3563C176.086 54.1465 176.548 54.0371 177.017 54.0365C177.533 54.0291 178.044 54.1441 178.507 54.3721C178.947 54.5934 179.314 54.9364 179.564 55.3605C179.839 55.8425 179.976 56.3913 179.958 56.9461C179.974 57.5006 179.837 58.0489 179.564 58.5316Z" fill="#2BFF55"/>
<path d="M201.017 51.6396C200.358 50.9082 199.513 50.3678 198.573 50.0752C197.436 49.7054 196.246 49.5268 195.05 49.5467C193.828 49.542 192.61 49.7111 191.435 50.0488C190.392 50.3456 189.369 50.7056 188.37 51.127L190.042 54.5914C190.369 54.3982 190.714 54.2397 191.073 54.1184C191.592 53.9308 192.121 53.7737 192.659 53.648C193.28 53.5023 193.916 53.4304 194.553 53.434C195.322 53.434 195.905 53.6101 196.303 53.9625C196.496 54.1358 196.65 54.3493 196.752 54.588C196.854 54.8268 196.903 55.085 196.895 55.3446V56.2748L196.816 56.2405C196.264 56.0057 195.691 55.8286 195.103 55.7119C194.463 55.5821 193.811 55.5157 193.158 55.5137C192.075 55.4971 190.999 55.6863 189.987 56.0713C189.154 56.3844 188.423 56.9201 187.873 57.6199C187.36 58.305 187.093 59.1428 187.114 59.9983C187.091 60.8126 187.319 61.6145 187.767 62.2947C188.221 62.9462 188.855 63.452 189.591 63.7508C190.442 64.1002 191.356 64.2711 192.276 64.2529C193.171 64.2686 194.06 64.0976 194.886 63.7508C195.62 63.4429 196.256 62.9392 196.723 62.2947C196.796 62.1935 196.863 62.0885 196.924 61.9802V63.949H201.945V54.1713C201.965 53.2408 201.634 52.3368 201.017 51.6396ZM196.506 59.882C196.253 60.2712 195.883 60.5701 195.449 60.7356C195.009 60.9095 194.54 60.9991 194.067 60.9998C193.779 61.0013 193.492 60.9549 193.219 60.8624C192.978 60.7854 192.762 60.6437 192.595 60.4528C192.439 60.2549 192.358 60.0074 192.368 59.7551C192.365 59.4647 192.458 59.1815 192.632 58.9491C192.824 58.7005 193.082 58.5116 193.377 58.4048C193.735 58.2645 194.117 58.1971 194.501 58.2066C195.148 58.1867 195.794 58.276 196.411 58.4708C196.572 58.5263 196.729 58.5925 196.882 58.669C196.86 59.0984 196.731 59.5156 196.506 59.882Z" fill="#2BFF55"/>
</g>
<defs>
<linearGradient id="paint0_linear_198_369" x1="-8.2688" y1="24.4866" x2="39.4598" y2="33.0805" gradientUnits="userSpaceOnUse">
<stop stop-color="#4487F3"/>
<stop offset="1" stop-color="#28D2D3"/>
</linearGradient>
<linearGradient id="paint1_linear_198_369" x1="32.5174" y1="7.00826" x2="45.4082" y2="20.3588" gradientUnits="userSpaceOnUse">
<stop stop-opacity="0"/>
<stop offset="1" stop-opacity="0.2"/>
</linearGradient>
<linearGradient id="paint2_linear_198_369" x1="70.6189" y1="17.1454" x2="34.798" y2="42.0363" gradientUnits="userSpaceOnUse">
<stop stop-color="#44A7F3"/>
<stop offset="1" stop-color="#10F8B7"/>
</linearGradient>
<linearGradient id="paint3_linear_198_369" x1="34.2166" y1="19.2674" x2="33.9946" y2="44.5627" gradientUnits="userSpaceOnUse">
<stop stop-opacity="0.2"/>
<stop offset="1" stop-opacity="0"/>
</linearGradient>
<linearGradient id="paint4_linear_198_369" x1="0.903557" y1="53.2623" x2="41.0557" y2="34.6397" gradientUnits="userSpaceOnUse">
<stop stop-color="#00F3F3"/>
<stop offset="1" stop-color="#2BFF55"/>
</linearGradient>
<clipPath id="clip0_198_369">
<rect width="218" height="71" fill="white"/>
</clipPath>
</defs>
</svg>
