<svg width="700" height="445" viewBox="0 0 700 445" fill="none" xmlns="http://www.w3.org/2000/svg">
<path d="M678.529 170.016V167.05L661.01 156.91L658.495 158.371L580.358 112.965V110L562.84 99.8596L545.436 109.971V112.849L485.436 147.71L482.964 146.278L465.56 156.39V159.268L450.24 168.164L449.522 168.584V209.361L445.296 211.82V194.042L411.136 174.196L407.543 180.546V172.099L373.382 152.253L369.789 158.617V150.141L343.375 134.793L355.892 127.517L361.296 130.656L367.432 127.098V72.0286L345.976 59.5596V56.6955L328.572 46.5843L326.1 48.0164L266.1 13.1553V10.2767L248.696 0.165527L231.192 10.3056V13.271L153.055 58.6772L150.54 57.2162L133.036 67.3563V70.3217L116.968 79.6517V134.735L122.846 138.12V144.427L128.954 147.971L134.387 144.817L154.794 156.679V163L160.902 166.544L166.334 163.391L186.741 175.252V181.573L192.849 185.117L198.282 181.964L218.689 193.825V196.4L178.823 219.574V229.468L163.244 238.523L162.813 238.277V236.368L140.767 223.551V213.122L134.846 209.679L125.879 214.887L113.965 207.958L112.326 208.913L76.7143 188.213L0 232.78V271.836L114.669 338.463L119.857 335.454L120.576 335.035V329.668L124.169 327.571L140.164 336.886L147.881 332.402V341.356L153.802 344.784L167.987 336.539V313.525L158.171 307.826L186.052 291.625L186.77 291.205V263.186L217.913 281.282L216.389 282.164V288.949L219.853 290.959V296.76L210.152 302.401L202.837 312.917L224.164 325.314L258.886 305.106L305.722 332.33L319.389 324.388L367.418 352.349L367.26 352.436L366.541 352.856V407.925L428.238 443.784L428.956 444.203L437.407 439.285V433.861L452.942 424.835L457.627 427.568L473.091 418.586V413.118L486.614 405.263L491.328 408.012L501.905 401.864L522.456 413.827L551.084 397.192L540.952 379.515L540.579 379.298V373.903L554.145 366.019L558.83 368.753L574.294 359.77V354.317L589.829 345.29L594.5 348.024L602.95 343.106V293.997L603.439 293.722L604.157 293.303V286.996L624.565 275.134L629.997 278.288L635.386 275.149L636.105 274.729V268.422L656.512 256.561L661.945 259.714L667.334 256.575L668.052 256.156V249.849L688.46 237.988L693.892 241.141L699.281 238.002L700 237.583V182.514L678.529 170.03V170.016ZM555.582 363.531V352.798V323.376V318.241V313.409L557.422 314.48V317.156V322.291V351.713V364.587L557.005 364.341L555.582 363.517V363.531ZM504.765 400.2L503.371 399.39V391.97L503.587 392.085L503.975 392.302L505.024 392.91L505.412 393.127L506.447 393.734L506.835 393.951L512.238 397.09L518.619 408.229L504.794 400.186L504.765 400.2ZM488.08 402.79V392.027V362.605V357.47V352.668L489.92 353.738V356.4V361.535V390.957V403.86L489.474 403.6L488.08 402.79ZM454.379 422.346V411.599V382.177V377.042V372.225L456.204 373.295V375.971V381.106V410.528V423.402L455.788 423.157L454.379 422.332V422.346ZM320.826 321.9V309.214L322.393 310.14V320.83L322.522 320.902L323.945 321.727L364.903 345.58V334.847L366.196 335.613L366.743 335.931L368.611 337.016L370.925 338.362V349.095L371.988 349.717L370.278 350.715L322.249 322.754L320.841 321.929L320.826 321.9ZM150.712 339.692V323.679L150.482 323.549L148.011 322.117L147.551 321.842L146.128 321.018L144.705 320.193L140.796 317.922L139.373 317.098L137.951 316.273L136.197 315.246L134.774 314.422L133.366 313.597L127.014 309.909L125.606 309.084V307.059L125.922 307.233L127.33 308.057H127.345L128.753 308.896L135.105 312.585L136.514 313.409H136.528L137.951 314.248L139.704 315.275L141.127 316.1L142.549 316.924L146.458 319.195L147.881 320.02L148.715 320.512L151.172 321.944L152.351 322.624V340.691L150.698 339.736L150.712 339.692ZM127 325.922L125.577 325.097V323.057L125.907 323.246L127.33 324.07L128.767 324.895L134.501 328.222L136.269 331.317L127 325.922ZM2.8455 270.173V236.078L14.285 242.732V276.827L2.8455 270.173ZM109.481 210.547L67.3729 235.008V256.069L116.236 284.464L162.123 257.805L162.842 257.386V241.546L163.273 241.792L173.29 247.607L174.713 248.432L176.135 249.256L178.851 250.833L180.274 251.657L181.697 252.482L182.473 252.93H182.487L181.697 253.408L180.274 254.232L178.851 255.057L172.902 258.514L171.493 259.338L170.789 259.743L170.056 260.163L148.039 272.979L149.448 273.803L152.638 275.655L151.014 276.61L147.824 274.744L146.415 273.919L111.622 294.127L114.482 295.747L116.279 296.76L114.683 297.686L114.482 297.57L4.28264 233.532L76.7287 191.439L109.495 210.489L109.481 210.547ZM134.861 212.963L136.514 213.918L128.969 218.301L127.33 219.255L85.1071 243.788L83.4544 242.819L125.677 218.286L127.316 217.331L134.861 212.948V212.963ZM178.837 232.751L180.26 231.927L181.683 231.102L184.14 229.67L194.143 235.485L181.668 242.732L180.245 243.557L178.823 244.381L176.106 245.958L166.09 240.143L178.823 232.751H178.837ZM218.703 199.684L220.126 198.859L221.549 198.035L223.388 196.964L224.811 196.14L226.234 195.315L230.243 192.986L257.951 176.887L259.374 176.062L260.797 175.238L263.355 173.748L264.778 172.923L266.201 172.099L268.055 171.014L269.276 170.305L269.477 170.189L270.9 169.365L290.115 158.198L291.322 157.489L291.537 157.373L292.055 157.069L292.514 157.33L292.96 157.59L295.518 159.08L296.941 159.905L297.113 160.006L298.364 160.729L299.499 161.395L300.218 161.814L300.922 162.219L301.64 162.639L302.345 163.044L303.063 163.463L331.705 180.098L333.128 180.923L334.551 181.747L337.253 183.324L338.675 184.148L340.098 184.973L362.431 197.948L363.854 198.773L365.277 199.597L369.459 202.027L370.882 202.852L372.304 203.676L375.006 205.253L376.429 206.077L377.852 206.902L400.199 219.892L401.622 220.716L403.045 221.541L407.198 223.956L407.888 224.361L407.198 224.766L380.884 240.056V247.882L372.549 252.728L367.49 247.839L330.656 269.247V277.087L305.65 291.625L255.882 262.709V251.238L305.564 280.125L374.977 239.781L376.4 238.957L377.823 238.132L394.422 228.484L393.215 227.269L392.18 226.213L391.145 225.157L383.169 217.1L377.837 213.151L376.414 212.095L374.992 211.039L372.29 209.028L370.867 207.972L369.444 206.916L369.416 206.888L368.007 207.915L360.505 202.36L359.255 201.434L358.005 200.508L356.525 199.409L355.159 200.407L343.705 191.945L342.297 192.972L340.098 191.352L338.675 190.296L337.253 189.24L334.551 187.244L333.128 186.188L331.705 185.132L330.814 184.467L329.449 185.465L318.009 177.002L316.63 178.015L305.161 169.538L302.373 171.578L300.95 172.62L299.528 173.661L293.693 177.914L292.4 176.959L280.902 185.363L279.58 184.394L268.126 192.755L266.862 191.815L255.365 200.205L254.057 199.235L242.603 207.596L241.338 206.656L227.642 216.652L216.174 228.108L223.345 232.274L219.839 234.314V241.72L183.105 220.369L218.703 199.684ZM133.036 73.6053V81.2284L150.439 91.3396L157.251 87.3761L212.912 119.72V127.633L230.315 137.744L247.115 127.98L247.834 127.56V119.72L321.717 76.7732L328.486 80.7077L345.286 70.9437L346.005 70.5242V62.8432L363.193 72.8242L361.339 73.9091L355.935 70.7701L325.626 88.3887L327.049 89.2132L331.03 91.5276L329.161 92.6125L325.181 90.2981L323.758 89.4736L293.449 107.092L294.857 107.917L298.838 110.231L296.97 111.316L292.989 109.002L291.58 108.177L261.271 125.796L262.68 126.62L266.675 128.949L264.807 130.034L260.811 127.72L259.403 126.895L228.835 144.644L224.825 146.973L222.986 145.902L226.996 143.573L228.418 142.749L198.296 125.26L196.873 126.085L192.864 128.414L191.024 127.343L195.034 125.015L196.456 124.19L166.334 106.702L164.911 107.526L160.902 109.855L159.062 108.785L163.072 106.456L164.509 105.631L134.387 88.1428L132.964 88.9673L129.701 90.8623L128.954 91.2962L127.115 90.2258L129.701 88.7359L131.139 87.9113L132.561 87.0868L121.251 80.5196L133.036 73.6631V73.6053ZM231.206 16.569V24.1922L231.882 24.5828L163.259 64.4633L163.359 64.6513L155.9 60.3118L231.192 16.569H231.206ZM158.688 84.9171V82.9064L158.99 83.08L160.427 83.919L161.836 84.7435L212.926 114.455V116.437L160.111 85.7416L158.703 84.9171H158.688ZM248.61 34.3034L253.281 31.5984L311.082 65.1721V68.9764L240.964 109.754L235.805 106.759L299.326 69.8443L274.838 55.6106L269.434 58.7785L267.58 57.6936L272.969 54.5112L248.567 40.3353L213.788 60.4998L219.192 63.6388L217.324 64.7236L211.92 61.5847L206.315 64.8538L179.714 80.2882L225.113 106.702L219.81 109.768L167.958 79.6083V76.2813L243.983 31.6128L248.61 34.3034ZM222.454 111.547L227.958 108.365L230.43 106.933L230.962 107.237L232.96 108.394L243.566 114.556L230.33 122.252L217.194 114.6L222.469 111.547H222.454ZM278.1 78.8561L276.289 77.7857V75.7751L279.853 77.8436L278.115 78.8561H278.1ZM267.997 69.3091V84.729L267.48 85.0328L266.172 85.7994V84.2661V73.6053V68.2387V60.1816L268.011 61.252V69.2947L267.997 69.3091ZM263.312 68.2532V70.2783L258.124 67.2695V65.2444L263.312 68.2532ZM263.312 73.5908V80.9536L258.124 77.9304V70.5676L263.312 73.5764V73.5908ZM263.312 64.9406L258.124 61.9319V54.5546L263.312 57.5634V64.9406ZM258.124 86.595L261.458 88.5334L258.124 90.4717V86.595ZM258.124 83.2825V81.2284L263.312 84.2517V86.2913L258.124 83.2825ZM282.685 76.1801L276.275 72.4625V65.0853L286.895 71.2475V73.7355L282.685 76.1801ZM289.741 67.5733L293.621 69.8299L289.741 72.0864V67.5733ZM286.895 67.9349L276.275 61.7728V59.7476L286.895 65.9098V67.9349ZM265.554 55.5527L258.124 51.2276V49.1881L267.293 54.5112L265.554 55.5383V55.5527ZM255.278 92.1207L250.507 94.898L249.975 94.5943V44.4869L255.278 47.5679V92.1352V92.1207ZM210.483 87.1592V94.493L210.124 94.6955L203.815 91.0214L210.483 87.1592ZM242.243 75.992L223.431 86.9277V79.5939L242.243 68.6582V75.992ZM242.243 59.9791L223.431 70.9147V63.5375L242.243 52.6018V59.9791ZM223.431 102.42V95.5779L242.243 84.6422V92.0195L223.906 102.68L223.446 102.405L223.431 102.42ZM215.872 67.1972V76.9467V82.3133V92.9742V98.0225L213.314 96.5326V94.4641V83.8032V78.4222V65.6928L215.067 66.7199L215.858 67.1827L215.872 67.1972ZM191.254 82.2265L210.468 71.0883V78.4656L196.327 86.6529L191.254 83.702V82.2265ZM161.836 79.3624L163.589 80.3895L165.026 81.2284L166.435 82.0529L216.936 111.432L215.154 112.459L164.653 83.08L163.244 82.2555L161.807 81.4165L160.054 80.3895L161.836 79.348V79.3624ZM317.104 70.799L315.667 71.638L314.258 72.4625L245.535 112.401L243.796 111.388L312.505 71.4355L313.913 70.611L315.351 69.772L317.104 68.745L318.857 69.772L317.104 70.799ZM311.068 61.8451L256.112 29.9349L254.689 29.1104V27.0418L255.048 27.2443L256.471 28.0689L257.894 28.8934L311.068 59.8055V61.8451ZM311.24 56.6087L260.725 27.2443L259.302 26.4198L257.88 25.5953L256.112 24.5683L257.865 23.5557L259.633 24.5828L261.056 25.4073L262.478 26.2318L312.994 55.5961L311.24 56.6087ZM236.136 25.4217L237.558 24.5972L239.283 23.5991L241.094 24.6406L239.355 25.6532L237.932 26.4777L236.509 27.3022L167.771 67.2406L165.975 66.1991L234.699 26.2607L236.121 25.4362L236.136 25.4217ZM215.743 117.073L228.864 124.725V133.621L215.743 125.998V117.073ZM317.104 65.4469L313.913 67.2985V60.0225L327.035 67.6746V76.5706L323.126 74.2996V68.9475L317.104 65.4469ZM260.783 11.6943L259.36 12.5188L248.596 18.7822L238.004 12.6056L236.581 11.7811L235.46 11.1301L248.696 3.46359L261.832 11.0867L260.783 11.6943ZM234.038 13.6037L235.159 14.2546L247.159 21.2558V30.1519L245.391 29.1248V23.7872L239.283 20.2721L234.713 22.9337L234.038 22.5432V13.6181V13.6037ZM135.867 70.6544L136.988 71.3053L148.988 78.3065V87.2026L135.867 79.5794V70.6544ZM328.558 49.8824L341.693 57.5055L340.644 58.1131L339.236 58.9376L328.457 65.201L315.322 57.5489L326.086 51.3144L327.509 50.4899L328.558 49.8824ZM315.609 54.0773L315.724 53.8892L265.324 24.5828L265.381 24.5538L266.1 24.1343V16.4678L323.255 49.6799L315.624 54.0918L315.609 54.0773ZM153.041 61.9753L163.647 68.1374L150.41 75.8329L139.819 69.6563L138.396 68.8318L137.275 68.1808L150.511 60.5143L151.603 61.1507L153.026 61.9753H153.041ZM465.546 162.581V170.262L483.05 180.431L489.819 176.496L563.702 219.443V227.298L581.206 237.467L597.891 227.775L598.61 227.327V219.443L654.27 187.099L661.082 191.063L677.768 181.371L678.486 180.923V173.328L695.689 183.324L693.849 184.394L688.417 181.241L658.294 198.729L659.731 199.554L663.741 201.883L661.901 202.953L657.892 200.624L656.469 199.8L626.347 217.288L627.77 218.113L631.779 220.441L629.94 221.512L625.93 219.183L624.507 218.358L594.385 235.847L595.808 236.671L599.817 239L597.978 240.071L593.968 237.742L592.545 236.917L579.827 244.309L575.846 246.623L573.978 245.539L577.958 243.224L579.381 242.4L549.072 224.781L547.649 225.605L543.668 227.92L541.8 226.835L545.781 224.521L547.204 223.696L516.894 206.077L515.472 206.902L511.491 209.216L509.623 208.132L513.604 205.817L515.026 204.993L484.717 187.374L480.032 190.093L479.314 190.513L477.46 189.428L480.032 187.924L482.849 186.275L453.732 169.365L465.488 162.537L465.546 162.581ZM545.422 116.162V123.843L546.198 124.291L495.783 153.598L495.898 153.786L488.281 149.374L545.422 116.162ZM491.27 174.023H491.242V171.969L491.572 172.157L493.009 172.996L494.418 173.806L563.716 214.077V216.116L492.679 174.818L491.285 174.008L491.27 174.023ZM562.926 134.012L567.554 131.321L643.578 175.99V179.317L591.726 209.477L586.423 206.41L631.822 179.997L605.192 164.533L599.63 161.279L598.193 162.118L594.227 164.432L592.359 163.347L596.311 161.047L597.748 160.208L562.969 140.044L538.509 154.263L543.941 157.417L542.102 158.487L536.669 155.334L512.209 169.553L575.731 206.468L570.572 209.462L500.454 168.685V164.881L558.255 131.307L562.926 134.012ZM578.591 208.103L580.588 206.945L581.12 206.642L583.592 208.074L589.096 211.256L594.371 214.308L581.235 221.96L567.999 214.265L578.605 208.103H578.591ZM538.107 181.27V172.171V161.496V159.471L539.846 160.483L540.694 160.975V170.681V182.789L538.107 181.284V181.27ZM524.641 170.956L535.261 164.794V172.171L528.852 175.889L524.641 173.444V170.956ZM553.412 177.639L548.224 180.662V173.299L553.412 170.291V177.653V177.639ZM553.412 161.64L548.224 164.649V157.272L553.412 154.263V161.64ZM553.412 186.304V190.18L550.078 188.242L553.412 186.304ZM610.553 189.066L601.039 183.555V181.487L612.335 188.025L610.553 189.066ZM588.09 202.143L587.63 202.418L569.293 191.757V184.38L588.105 195.315V202.157L588.09 202.143ZM592.804 175.021V180.387V191.048V196.444V199.409L590.95 200.494V195.373V189.978V179.317V173.95V165.85L592.804 166.935V175.035V175.021ZM569.293 179.013L588.105 189.949V192.003L569.293 181.067V179.013ZM588.105 176.004L569.293 165.069V163.015L588.105 173.95V176.004ZM588.105 170.638L569.293 159.702V152.325L588.105 163.261V170.638ZM588.105 179.317V186.651L569.293 175.715V168.381L588.105 179.317ZM583.592 204.79L581.12 203.358L580.588 203.662L569.293 197.095V195.069L584.785 204.081L583.578 204.79H583.592ZM601.068 194.202V186.868L607.736 190.73L601.427 194.404L601.068 194.202ZM615.209 186.39L601.068 178.203V170.826L620.282 181.964V183.439L615.209 186.39ZM623.128 178.275L626.146 180.026L623.128 181.79V178.275ZM620.282 176.684V178.651L601.068 167.513V165.459L603.64 166.949L620.282 176.684ZM566.461 195.489L564.435 194.303V144.181L566.461 145.353V195.474V195.489ZM590.332 161.25L569.307 149.027V147.016L592.086 160.223L590.332 161.25ZM495.869 171.375L494.432 170.537L492.679 169.51L494.432 168.482L496.185 169.51L497.623 170.348L499.031 171.173L567.74 211.126L566.001 212.138L497.278 172.2L495.869 171.375ZM649.729 181.154L648.292 181.993L646.883 182.817L596.383 212.196L594.601 211.169L645.102 181.79L646.51 180.966L647.947 180.127L649.7 179.1L651.482 180.141L649.729 181.168V181.154ZM569.005 128.862V126.837L569.321 127.025L570.744 127.85L572.167 128.674L643.607 170.189V172.692L570.428 129.687L569.019 128.862H569.005ZM643.75 166.964L575.012 127.025L573.59 126.201L572.167 125.376L570.428 124.364L572.239 123.322L573.963 124.32L575.386 125.145L576.809 125.969L645.533 165.908L643.736 166.949L643.75 166.964ZM550.48 125.13L551.903 124.306L553.671 123.279L555.424 124.291L553.657 125.318L552.234 126.143L550.811 126.967L500.296 156.332L498.542 155.319L549.058 125.955L550.48 125.13ZM566.576 216.767L579.827 224.463V233.359L566.576 225.663V216.767ZM649.7 175.787L646.438 177.682V170.348L659.688 178.044V186.94L655.722 184.626V179.274L649.7 175.773V175.787ZM574.955 111.519L573.532 112.343L562.94 118.52L552.176 112.271L550.753 111.446L549.704 110.839L562.84 103.216L576.076 110.882L574.955 111.533V111.519ZM548.282 113.312L549.331 113.92L561.532 121.008V129.904L559.707 128.848V123.481L553.671 119.981L549.058 122.671L548.282 122.223V113.327V113.312ZM468.406 160.946V159.731L469.455 160.339L481.656 167.427V176.323L468.406 168.627V160.946ZM674.232 167.918L673.111 168.569L671.688 169.394L661.097 175.57L647.861 167.875L658.467 161.713L659.889 160.888L660.982 160.252L674.218 167.918H674.232ZM648.163 164.389L648.263 164.201L579.64 124.32L580.315 123.886V116.307L655.607 160.049L648.148 164.389H648.163ZM485.421 151.052L496.185 157.286L483.05 164.939L472.286 158.675L470.863 157.851L469.814 157.243L482.949 149.62L483.998 150.227L485.421 151.052ZM593.048 343.887L591.209 342.817V297.917L589.484 295.487L588.651 294.315L587.817 293.143L584.885 289.006L589.901 291.928L591.151 292.652L591.324 292.753L592.747 293.577L593.048 293.751V343.873V343.887ZM371.658 353.217L373.08 352.393L374.79 351.395L375.581 350.932L376.213 350.57L376.989 350.107L377.636 349.731L378.426 349.268L394.307 340.04L398.417 337.653L401.291 335.989L444.808 361.274L420.664 375.306L418.537 376.55L433.138 385.055L428.956 387.485L378.455 358.136L370.81 353.695L371.672 353.188L371.658 353.217ZM219.206 285.52L221.247 286.706L225.745 289.325L226.636 289.845V291.668L225.745 291.147L221.247 288.529L219.206 287.343V285.52ZM687.008 230.205L668.024 241.213V233.836L687.008 222.828V230.205ZM687.008 214.164L668.024 225.172V217.838L687.008 206.83V214.164ZM687.008 198.151L668.024 209.159V201.781L687.008 190.759V198.136V198.151ZM655.061 248.764L636.076 259.772V252.395L655.061 241.387V248.764ZM655.061 232.722L636.076 243.73V236.368L655.061 225.36V232.722ZM655.061 216.709L636.076 227.717V220.34L655.061 209.332V216.709ZM552.694 352.827L540.55 359.886V333.776L552.694 326.717V352.827ZM485.191 392.056L473.062 399.101V372.991L485.191 365.947V392.056ZM451.49 411.642L437.378 419.844V393.734L451.49 385.533V411.642ZM362 334.384V340.647L351.638 334.615V327.209L362 333.227V334.369V334.384ZM333.53 277.145V273.514L334.795 274.744L335.859 275.785L336.908 276.827L358.465 297.845L366.125 293.259V317.402L348.764 307.305L347.341 306.48L345.918 305.656L333.502 298.438V277.159L333.53 277.145ZM383.744 247.94V244.323L384.046 244.627L384.994 245.553L386.058 246.594H386.072L387.121 247.636L388.242 248.735L392.453 252.829L408.693 268.654L416.08 264.242L416.353 264.083V304.311L410.331 300.81V275.033L407.313 273.283L405.89 272.458L404.467 271.634L404.18 271.46V267.815L395.298 272.979V266.412L385.583 265.515L383.744 263.721V247.954V247.94ZM295.346 155.695L292.96 154.307V146.409V141.071V130.396V125.043V114.368V112.343L294.699 113.356L295.504 113.833V123.568V128.906V139.581V144.919V155.594V155.782L295.346 155.695ZM154.765 116.003L135.781 104.995V97.6175L154.765 108.626V116.003ZM135.781 126.345V124.291L154.765 135.299V137.353L135.781 126.345ZM135.781 120.993V113.659L154.765 124.667V132.001L135.781 120.993ZM135.781 110.361V108.293L154.765 119.301V121.369L135.781 110.361ZM135.781 129.658L154.765 140.666V148.043L135.781 137.035V129.658ZM186.713 134.562L167.728 123.554V116.176L186.713 127.184V134.562ZM167.728 144.919V142.865L186.713 153.873V155.927L167.728 144.919ZM167.728 139.567V132.204L186.713 143.212V150.575L167.728 139.567ZM167.728 128.906V126.881L186.713 137.889V139.914L167.728 128.906ZM167.728 148.246L186.713 159.254V166.631L167.728 155.623V148.246ZM218.66 174.5L199.676 163.478V161.467L218.66 172.489V174.5ZM199.676 158.169V150.748L218.66 161.756V169.177L199.676 158.154V158.169ZM199.676 147.45V145.454L218.66 156.476V158.473L199.676 147.45ZM199.676 166.804L218.66 177.827V185.161L199.676 174.138V166.804ZM218.66 153.164L199.676 142.141V134.75L218.66 145.758V153.149V153.164ZM220.931 143.79L199.676 131.452V129.412L222.67 142.763L220.931 143.776V143.79ZM188.969 125.232L167.728 112.907V110.853L190.722 124.205L188.969 125.232ZM157.021 106.673L135.781 94.3484V92.2943L158.775 105.646L157.007 106.673H157.021ZM334.896 146.047L357.372 159.109L353.895 163.304L353.751 163.478L352.026 162.465L349.77 165.184L348.218 164.288V160.237L329.348 149.273L328.486 148.766L327.049 147.927L325.152 146.828L324.074 146.206L324.275 145.96L324.419 145.787L324.85 145.266L325.77 144.152L326.92 142.763L327.681 141.852H327.696L328.084 142.083L328.774 142.474L329.118 142.677L329.995 143.183L330.541 143.501L331.231 143.906L332.064 144.383L333.473 145.208L334.91 146.047H334.896ZM368.352 165.503L368.985 165.864L369.775 166.327L395.126 181.053L391.648 185.248L391.519 185.407L389.78 184.394L387.524 187.128L385.986 186.231V182.181L369.789 172.779L368.367 171.954L366.944 171.13L366.24 170.725L364.788 169.886L362.891 168.786L361.813 168.164L365.435 163.796L366.527 164.432L366.944 164.678L367.763 165.155L368.367 165.503H368.352ZM406.106 187.446L406.738 187.808L407.543 188.271L432.894 202.996L429.416 207.191L427.016 210.084L423.739 208.175V204.125L407.557 194.722L406.135 193.898L404.712 193.073L404.008 192.668L402.556 191.829L400.659 190.73L399.581 190.108L403.203 185.739L404.295 186.376L404.712 186.622L405.531 187.099L406.135 187.446H406.106ZM426.585 226.994L425.047 227.891L419.744 230.972L418.939 231.449L417.517 232.274L416.094 233.098L410.072 236.599L408.65 237.424L407.227 238.248L395.686 244.96L392.338 244.656L391.677 244.598L407.227 235.572L408.65 234.747L410.072 233.923L416.094 230.422L417.474 229.627L417.517 229.598L418.048 229.294L418.939 228.773L422.604 226.647H422.748L423.883 226.763L425.191 226.878L426.599 227.009L426.585 226.994ZM595.736 242.154L596.569 242.645V257.704V268.379V273.717V284.406L593.982 282.902V275.221V269.883V259.208V243.181V241.141L595.736 242.154ZM598.639 288.905L598.007 289.267L596.584 290.091L594.471 291.306L594.169 291.133L593.997 291.032L592.574 290.207L592.359 290.077L591.151 289.368L581.278 283.596L579.899 282.786L577.297 284.305L575.875 285.13L574.452 285.954L572.598 287.039L571.578 287.632L571.175 287.864L570.715 288.138L570.227 288.428L569.767 288.703L568.416 289.484L566.993 290.308L565.57 291.133L563.558 292.304L547.117 282.743L545.695 281.918L545.149 281.6L544.272 281.079L543.726 280.761L542.303 279.937L540.449 278.852L539.026 278.027L537.604 277.203L520.056 267.005L522.068 265.833L523.491 265.009L524.914 264.184L526.653 263.172L528.09 262.333L529.498 261.508L535.85 257.819L537.273 256.995L537.604 256.807L538.696 256.17L539.026 255.982L540.449 255.158L540.535 255.1L542.303 256.127L543.726 256.952L545.149 257.776L547.707 259.266L548.469 259.714L549.13 260.091L550.552 260.915L569.767 272.082L570.529 272.516L571.19 272.907L572.612 273.731L574.466 274.816L575.889 275.641L577.312 276.465L581.293 278.78L591.166 284.522L592.373 285.217L592.589 285.347L593.753 286.027L594.011 286.186L596.598 287.69L598.021 288.515L598.337 288.703L598.653 288.891L598.639 288.905ZM511.275 380.238L509.881 379.428H509.853L508.444 378.589H508.43L506.748 377.606L505.326 376.781L503.903 375.957L503.299 375.609V373.772L503.903 374.12L505.326 374.944L506.748 375.769L510.011 377.664H510.025L511.433 378.488H511.462L511.778 378.691V379.949V380.528L511.29 380.253H511.275V380.238ZM489.46 350.252L491.285 349.196L493.124 350.266L491.299 351.322L489.46 350.252ZM455.759 369.823L457.584 368.767L459.423 369.838L457.584 370.908L455.744 369.838L455.759 369.823ZM348.807 326.732V332.981L338.431 326.949V319.557L348.807 325.589V326.732ZM326.905 94.6811L327.71 95.1439V104.893V110.231V120.906V126.244V136.919V138.511L327.035 138.12L325.152 140.391V138.409V127.72V122.382V111.707V106.354V95.6792V93.6396L326.891 94.6521L326.905 94.6811ZM354.484 119.764L335.959 130.511L335.643 130.323L335.341 130.859L335.269 130.902V123.525L354.484 112.372V119.749V119.764ZM353.162 166.428L354.412 167.152L354.915 167.441L356.812 168.54L357.473 168.916L358.58 169.567L358.723 169.654L359.974 170.377L360.491 170.681L362.388 171.781L366.958 174.428L368.381 175.252L369.804 176.077L382.393 183.396L381.976 183.888L381.057 185.002L380.137 186.116L376.515 190.484L369.804 186.593L368.381 185.768L366.958 184.944L348.678 174.312L346.81 173.227L346.838 173.198L348.261 171.477L349.598 169.871L350.445 168.844L351.02 168.15L351.365 167.73L351.423 167.658L352.285 166.616L352.443 166.428L352.687 166.139L353.018 166.327L353.176 166.414L353.162 166.428ZM390.93 188.372L392.18 189.095L392.683 189.385L394.58 190.484L395.212 190.846L396.319 191.497L396.463 191.583L397.713 192.307L398.23 192.61L400.127 193.71L404.697 196.357L406.12 197.181L407.543 198.006L420.132 205.325L419.715 205.817L418.796 206.931L417.876 208.045L414.254 212.413L407.557 208.522L406.135 207.698L404.712 206.873L386.431 196.241L384.563 195.156L384.592 195.127L386.015 193.406L387.322 191.829L388.185 190.802L388.76 190.122L389.119 189.688L389.176 189.616L390.039 188.575L390.182 188.401L390.441 188.083L390.786 188.285L390.93 188.372ZM382.106 197.066L404.712 210.2L406.135 211.025L407.557 211.849L410.503 213.57L408.922 213.86L407.557 213.064L406.135 212.24L404.712 211.415L380.525 197.355L382.106 197.066ZM344.352 175.122L366.958 188.256L368.381 189.081L369.804 189.905L372.764 191.627L371.183 191.916L369.818 191.12L368.395 190.296L366.973 189.471L342.786 175.411L344.366 175.122H344.352ZM308.179 155.29L306.757 154.466L305.334 153.641L305.018 153.453L305.952 153.28L306.598 153.164L307.791 153.858L309.214 154.683L334.996 169.654L333.415 169.943L308.179 155.276V155.29ZM303.092 110.173L322.306 99.0206V106.398L303.092 117.551V110.173ZM322.306 138.453L316.529 141.809L314.273 140.492L310.091 145.541L303.092 149.605V142.228L322.306 131.075V138.453ZM322.306 122.411L303.092 133.564V126.201L322.306 115.048V122.411ZM344.223 161.944L343.303 163.058L342.383 164.172L338.762 168.54L312.074 153.034L310.924 152.368L310.651 152.209L309.228 151.385L309.056 151.283L309.085 151.254L310.507 149.533L311.959 147.783L314.632 144.557L314.92 144.195L315.078 144.282L316.515 145.121L318.254 146.134L319.676 146.958H319.705L320.812 147.624L320.955 147.71L321.099 147.797L322.206 148.434L322.723 148.737L324.62 149.837L344.625 161.467L344.208 161.959L344.223 161.944ZM354.484 103.722L335.269 114.874V107.541L354.484 96.3879V103.722ZM354.484 87.7088L335.269 98.8615V91.4843L354.484 80.3316V87.7088ZM473.249 229.858V234.169L469.541 232.014L473.249 229.844V229.858ZM623.113 267.265L604.129 278.273V270.939L623.113 259.931V267.265ZM586.193 295.776L587.027 296.948L587.731 297.946L574.265 305.772V298.553L572.612 297.584L571.19 296.76L569.767 295.935L566.404 293.982L568.43 292.811L569.781 292.03L569.853 291.986L571.204 291.205L571.276 291.162L572.627 290.381L574.452 289.325H574.481L575.903 288.471L577.326 287.647L579.525 286.374L581.307 288.891L585.374 294.633L586.208 295.805L586.193 295.776ZM550.265 301.663L548.856 300.839L505.34 275.554L503.917 274.729L503.199 274.31L502.495 273.905L499.62 275.568L499.232 275.337V263.663L509.666 269.739L511.089 270.563L512.511 271.388L556.013 296.687L557.422 297.512L558.845 298.351L566.72 302.936V309.142V311.804V315.564L566.49 315.42L564.924 314.509H564.895V312.874V310.198L560.21 307.464L551.688 302.517L550.265 301.692V301.663ZM482.734 340.893L481.325 340.069L437.795 314.783L436.372 313.959L435.682 313.554L434.978 313.134L432.103 314.798H432.075L431.716 314.566V302.893L442.12 308.954L443.543 309.778L444.966 310.603L488.468 335.903L489.876 336.727L491.299 337.566L499.203 342.166V348.343V351.004V354.794L498.945 354.635L497.378 353.724V352.075V349.413H497.364L492.679 346.679L484.157 341.732L482.734 340.908V340.893ZM391.404 338.434L384.017 342.73L371.413 335.396L369.991 334.572L369.013 333.993L368.568 333.733L367.59 333.154L366.168 332.33L335.959 314.769L334.536 313.944L333.559 313.366L333.114 313.105L332.122 312.527L330.699 311.702L322.206 306.755L330.699 301.823L332.122 300.998L332.208 300.94L333.545 301.721L343.116 307.29L344.539 308.115L345.962 308.939L366.168 320.685L367.59 321.51L369.013 322.334L378.585 327.903L380.007 328.728L381.43 329.552L394.034 336.886L391.404 338.419V338.434ZM404.899 260.047L407.241 260.264L407.5 260.293V263.49L403.878 259.96L404.899 260.062V260.047ZM448.243 307.073L449.665 307.898L493.182 333.198L494.59 334.022L496.013 334.861L502.495 338.622L500.655 339.692L494.173 335.931L492.751 335.107L491.342 334.282L447.84 308.983L446.417 308.158L444.995 307.334L433.167 300.448L435.007 299.378L446.849 306.263L448.271 307.088L448.243 307.073ZM468.779 293.491L465.905 295.154L465.517 294.923V283.249L475.951 289.325L477.373 290.149L478.796 290.974L522.298 316.273L523.706 317.098L525.129 317.937L533.005 322.522V328.728V331.389V335.15L532.76 335.006L531.194 334.094H531.165V332.46V329.784L526.48 327.05L517.958 322.103L516.535 321.278L515.127 320.454L471.61 295.169L470.188 294.344L469.469 293.925L468.765 293.505L468.779 293.491ZM418.824 325.82L432.089 318.11H432.103L434.978 316.461L478.48 341.732L462.341 351.12L418.824 325.82ZM512.871 375.986L506.763 372.442L505.34 371.617L504.708 371.255L505.34 370.879L506.763 370.04V364.573L518.978 357.485L520.315 356.703L520.401 356.761L521.824 357.586L523.664 358.656L525.057 359.466H525.086L526.509 358.613L528.564 357.398L536.698 362.128L537.029 362.316L526.509 368.435L525.086 369.259L523.664 370.084L521.824 371.154L520.631 371.849L520.401 371.979L518.978 372.803L513.201 376.159L512.885 375.971H512.871V375.986ZM515.141 323.737L522.226 327.86L518.978 329.74V337.884L506.748 344.987V337.798L498.844 333.198L515.127 323.737H515.141ZM521.838 344.668V343.019V337.884V333.053L523.678 334.123V336.799V341.935V355.329L521.838 354.259V344.64V344.668ZM506.763 353.42L518.993 346.317V354.172L506.763 361.274V353.42ZM525.086 331.65L523.247 330.579L525.072 329.523L526.911 330.594L525.086 331.65ZM468.765 296.789L512.281 322.074L495.999 331.534L452.497 306.234L468.765 296.789ZM417.804 308.448L428.87 302.011V316.23L429.244 316.447L415.979 324.157L403.375 316.823L404.194 316.346V306.061L408.951 303.298L417.804 308.448ZM387.768 269.623L383.773 271.952L382.35 272.776L380.927 273.601L358.393 286.692L354.383 286.316L380.927 270.896L382.35 270.071L383.773 269.247L385.296 268.365L386.59 268.48L389.306 268.726L387.768 269.623ZM344.366 276.885V280.081L340.745 276.552L344.366 276.885ZM374.848 257.038L345.459 274.107L342.139 273.803L341.463 273.746L372.391 255.78L373.037 255.838L373.67 255.896L376.386 256.141L374.848 257.038ZM380.769 264.792L380.913 264.936L382.335 266.325L382.623 266.614L382.335 266.788L380.913 267.612L349.986 285.578L348.132 283.77L380.769 264.806V264.792ZM357.272 289.469V292.666L353.65 289.137L357.272 289.469ZM384.276 327.932L395.184 321.596V334.268L384.276 327.932ZM466.954 359.249L460.487 355.488L459.064 354.664L457.656 353.839L414.139 328.54L412.717 327.715L411.294 326.891L399.437 320.005L401.277 318.935L413.133 325.82L414.556 326.645L415.979 327.469L459.495 352.769L460.904 353.593L462.326 354.432L468.794 358.193L466.954 359.264V359.249ZM534.456 320.02L528.004 316.273L526.581 315.449L525.172 314.624L481.67 289.325L480.248 288.5L478.825 287.676L466.968 280.776L468.808 279.705L480.664 286.605L482.087 287.43L483.51 288.254L527.012 313.554L528.42 314.378L529.843 315.217L536.296 318.964L534.456 320.034V320.02ZM502.48 277.203L545.996 302.488L529.829 311.89L486.327 286.591L502.48 277.203ZM569.752 256.156V258.152L550.538 246.999V245.003L569.752 256.156ZM550.538 250.312L569.752 261.465V268.784L550.538 257.617V250.327V250.312ZM574.466 257.241V262.579V271.504L572.612 270.419V261.508V256.156V248.07L574.466 249.155V257.241ZM569.752 252.843L550.538 241.691V234.299L569.752 245.452V252.843ZM537.575 237.467V239.492L518.36 228.339V226.3L537.575 237.452V237.467ZM518.36 231.652L537.575 242.805V250.167L518.36 239.015V231.652ZM537.575 234.154L518.36 223.002V215.624L537.575 226.777V234.154ZM514.926 264.025L516.923 262.868L519.165 264.17L517.168 265.341L514.926 264.039V264.025ZM518.346 260.38V258.369L523.75 261.508L522.011 262.521L518.332 260.38H518.346ZM518.346 255.057V247.679L532.962 256.156L526.61 259.845L518.36 255.057H518.346ZM518.346 244.367V242.313L537.56 253.465L535.807 254.492L518.346 244.367ZM542.274 238.537V243.875V252.786L540.507 251.759L540.42 251.816V242.805V237.452V229.352L542.274 230.437V238.537ZM505.397 218.763V220.832L486.183 209.679V207.611L505.397 218.763ZM505.397 224.13V231.464L486.183 220.311V212.977L505.397 224.13ZM505.397 234.762V236.816L486.183 225.663V223.609L505.397 234.762ZM505.397 240.114V247.491L486.183 236.339V228.961L505.397 240.114ZM505.397 215.436L486.183 204.284V196.907L505.397 208.059V215.436ZM486.183 239.651L505.397 250.804V252.829L486.183 241.662V239.651ZM508.243 256.141V250.804V240.114V234.776V224.101V218.749V210.648L510.097 211.733V219.834V225.172V235.847V241.184V251.86V261.19L508.243 260.105V256.127V256.141ZM512.08 265.66L514.322 266.961L515.745 267.786L517.168 268.61L537.56 280.472L544.229 284.349L560.67 293.91L562.078 294.735L563.501 295.574L569.709 299.19L569.954 299.335L569.709 299.479L568.114 300.405L561.661 296.659L560.239 295.834L558.83 295.009L515.328 269.71L513.905 268.885L512.483 268.061L500.612 261.161L502.451 260.091L505.383 261.797L512.066 265.689L512.08 265.66ZM394.565 250.717V250.862L394.192 250.486L390.944 247.318L394.565 247.65V250.703V250.717ZM401.967 333.096L401.263 332.677L398.388 334.34L398 334.109V322.435L408.419 328.496L409.842 329.321L411.265 330.145L454.782 355.445L456.19 356.27L457.613 357.108L465.503 361.694V367.885V370.547V374.308L465.258 374.163L463.692 373.252H463.663V371.617V368.941L458.978 366.207L450.456 361.246L449.033 360.421L447.625 359.597L404.094 334.311L402.671 333.487L401.967 333.082V333.096ZM558.758 309.894L560.598 310.965L558.773 312.021L556.933 310.95L558.758 309.894ZM588.349 332.084L574.236 340.286V314.176L588.349 305.974V332.084ZM623.084 251.281L604.1 262.289V254.869L623.084 243.861V251.281ZM623.084 235.254L604.1 246.262V238.87L623.084 227.862V235.254ZM571.98 243.441L550.523 230.987V228.947L573.719 242.428L571.98 243.441ZM539.788 224.752L518.346 212.312V210.258L541.541 223.739L539.788 224.766V224.752ZM507.611 206.063L486.169 193.623V191.554L509.364 205.036L507.611 206.063ZM477.919 238.537V243.166L476.066 242.081V191.974L477.919 193.059V238.537ZM452.942 225.692L454.365 224.868L455.788 224.043L473.206 213.874V221.28L462.096 227.717L460.674 228.542L459.251 229.366L457.138 230.596L450.829 226.936L452.942 225.707V225.692ZM466.667 233.663L473.206 237.467V243.745L479.342 247.303L484.746 244.164L505.383 256.156V258.485L502.451 256.778L496.344 260.322V276.957L496.746 277.188L483.452 284.913L468.75 276.364L462.643 279.908V296.543L463.031 296.774L449.637 304.556L437.033 297.223L454.393 287.14V276.87L471.998 266.629V239.188L464.569 234.878L466.681 233.648L466.667 233.663ZM437.953 240.432L437.019 240.982L418.925 251.498L417.502 252.323L416.08 253.147L410.058 256.648L408.635 257.472L408.578 257.501L407.212 257.371L405.761 257.241L404.568 257.125L405.071 256.836L407.212 255.592L408.635 254.767L410.058 253.943L416.08 250.442L417.502 249.618L418.925 248.793L434.705 239.637L435.495 239.174L436.789 239.29L439.505 239.535L437.967 240.432H437.953ZM431.845 237.973L418.925 245.481L417.502 246.305L416.08 247.13L410.058 250.63L408.635 251.455L407.212 252.279L402.226 255.172L400.803 255.997L400.199 256.344L398.403 254.594L398.345 254.536L399.754 253.726L407.227 249.386L408.65 248.562L410.072 247.737L416.094 244.237L417.517 243.412L418.939 242.588L429.387 236.527L430.983 235.601L432.836 237.409L431.859 237.973H431.845ZM290.1 141.085L270.886 152.238V144.817L290.1 133.665V141.085ZM290.1 125.058L270.886 136.211V128.819L290.1 117.666V125.058ZM249.674 178.391L245.19 175.787L255.192 169.972L257.923 171.578L259.345 172.417L259.647 172.605L259.345 172.779L257.923 173.603L249.674 178.391ZM243.753 178.261L246.814 180.04L243.753 181.819V178.261ZM262.493 170.942L260.768 169.929V165.098V159.76V149.085V143.733V133.057V131.032L262.507 132.045L263.326 132.522V142.257V147.595V158.27V163.608V170.464L262.493 170.956V170.942ZM270.886 160.859L290.1 149.707V154.9L270.886 166.067V160.859ZM302.345 158.632V155.189L302.46 155.247L303.063 155.594L303.868 156.071L305.291 156.896L331.691 172.229V176.785L303.049 160.151L302.33 159.731V158.603L302.345 158.632ZM340.098 177.147L366.915 192.726L368.338 193.551L369.444 194.202V198.744L368.122 197.977L366.699 197.152L365.277 196.328L340.098 181.689V177.147ZM377.852 199.091L404.683 214.684L406.106 215.509L407.212 216.16V220.702L405.905 219.935L404.482 219.111L403.059 218.286L377.866 203.647V199.105L377.852 199.091ZM410.058 226.459L410.748 226.054L412.17 225.229L413.593 224.405L417.287 222.264L419.917 224.81L417.1 226.444L415.677 227.269L414.254 228.094L410.058 230.538L408.635 231.363L407.212 232.187L387.279 243.759L384.664 241.213L407.212 228.108L408.635 227.283L410.058 226.459ZM337.066 272.95L334.45 270.404L367.073 251.44L369.703 253.986L337.066 272.95ZM325.195 311.818L330.239 314.754L330.671 315.015L331.662 315.593L333.085 316.418L335.557 317.864V325.256L326.733 320.121L325.31 319.297L325.195 319.224V311.847V311.818ZM381.157 344.35L375.552 347.605L374.776 348.053L373.713 347.431V340.011L381.157 344.336V344.35ZM437.363 385.272V384.231L424.185 376.55L447.625 362.924L454.724 367.046L451.476 368.927V377.056L437.363 385.258V385.272ZM473.047 364.529V357.326L465.158 352.74L481.297 343.352L488.411 347.489L485.163 349.37V357.485L473.033 364.529H473.047ZM540.535 325.314V318.096L532.66 313.51L548.828 304.108L555.913 308.231L552.665 310.111V318.255L540.521 325.314H540.535ZM119.785 82.9498L123.033 84.8303L126.813 87.029L123.651 88.8661L123.033 89.2277L122.818 89.3579V134.822L119.785 133.072V82.9498ZM125.663 138.12V132.782V122.093V116.755V106.08V100.728V92.6704L127.503 93.7408V101.798V107.136V117.811V123.149V133.824V139.176V143.834L125.663 142.763V138.12ZM157.611 156.664V151.327V140.637V135.299V124.624V119.272V111.215L159.45 112.285V120.328V125.665V136.341V141.678V152.354V162.364L157.611 161.293V156.621V156.664ZM189.558 175.223V169.886V159.196V153.858V143.183V137.831V129.788L191.398 130.859V138.901V144.239V154.914V160.252V170.942V180.966L189.558 179.896V175.223ZM289.353 303.529V301.49L295.374 304.99V307.03L289.353 303.529ZM289.353 298.192V290.815L295.374 294.315V301.692L289.353 298.192ZM289.353 314.219V306.842L295.374 310.343V317.72L289.353 314.219ZM295.374 291.017L289.353 287.517V285.477L295.374 288.978V291.017ZM269.736 295.443L275.758 298.944V306.321L269.736 302.821V295.443ZM269.736 292.131V290.091L275.758 293.592V295.631L269.736 292.131ZM269.736 286.793V279.416L275.758 282.917V290.294L269.736 286.793ZM275.758 279.619L269.736 276.118V274.078L275.758 277.579V279.619ZM257.405 297.309L255.911 298.177V296.427V287.401L257.405 288.269V297.295V297.309ZM237.415 292.666V255.794L231.839 252.554L230.416 251.73L228.993 250.905L224.294 248.171V251.354V262.029V267.366V277.55L223.863 277.796L223 278.302L222.655 278.505V277.102V266.412V261.074V250.399V245.047V237.641L239.082 247.188V254.594V306.321L237.429 305.367V292.681L237.415 292.666ZM228.677 219.602L304.17 263.475V275.988L255.911 247.94V237.409L235.216 225.388L226.148 230.654L220.773 227.529L228.677 219.617V219.602ZM282.685 201.507L289.64 197.471L291.02 196.661L291.192 196.559L291.925 196.125L292.443 195.822L292.5 195.778L292.601 195.72L292.759 195.634L292.831 195.59L293.751 195.055L293.88 194.983L294.11 194.852L295.461 194.071L299.513 191.728L300.936 190.903L302.359 190.079L302.445 190.036L303.825 189.24L304.012 189.124L304.802 188.661L305.233 188.415L305.276 188.387L305.377 188.329H305.391L306.498 188.965L306.613 189.038H306.642L315.193 194.028L316.544 194.809L316.587 194.838L317.794 195.547L317.851 195.59H317.866L317.938 195.648H317.966V195.677H317.995L318.038 195.706L319.288 196.429L319.418 196.502H319.432L328.012 201.492L328.199 201.608L328.156 201.637L327.15 202.23L326.517 202.591L319.403 206.728L319.116 206.902L318.024 207.538L317.981 207.567L317.693 207.741L316.558 208.406L316.27 208.58L315.408 209.072L305.334 214.93L295.087 208.985L293.808 208.247L292.385 207.423L290.962 206.598L283.806 202.447L283.274 202.143L282.469 201.68L282.627 201.593L282.685 201.507ZM309.171 231.869L316.788 226.314V237.496L309.516 232.129L309.171 231.883V231.869ZM321.933 224.419L329.549 218.865V230.046L322.306 224.694L321.933 224.419ZM303.969 230.017L292.644 221.642L291.236 222.669L282.555 216.247L282.052 215.87L284.021 210.938L287.858 213.165L303.969 222.524V230.017ZM342.326 212.948V222.669L337.253 218.923L334.953 217.23L334.695 217.042L337.238 215.176L338.661 214.135L340.084 213.093L342.311 211.473V212.948H342.326ZM318.21 210.735L318.311 210.677L318.541 210.547L319.159 210.186L319.446 210.012L320.582 209.347L322.005 208.522L327.696 205.224L327.653 205.325L326.388 207.857L323.614 209.462L322.191 210.287L320.769 211.111L319.906 211.603L306.8 219.212V217.346L318.21 210.721V210.735ZM303.954 219.226L290.689 211.516L284.38 207.857L283.173 205.427L283.073 205.238L291.006 209.853L292.141 210.504L292.285 210.591L292.342 210.62L303.954 217.36V219.226ZM278.301 218.763V229.945L270.684 224.318L278.287 218.778L278.301 218.763ZM291.164 226.242L291.192 226.213V237.424L283.561 231.782L291.164 226.227V226.242ZM303.997 233.706V244.888L296.38 239.261L303.983 233.706H303.997ZM316.903 241.17V252.395L309.272 246.754L316.903 241.184V241.17ZM322.033 239.318L329.665 233.749V244.96L322.033 239.318ZM342.426 226.329V237.554L334.795 231.912L342.426 226.343V226.329ZM351.121 227.124L347.557 224.492L348.39 223.884L355.202 218.908V230.133L351.121 227.124ZM355.059 205.528V215.205L347.729 209.781L347.442 209.564L355.059 204.009V205.513V205.528ZM278.215 215.075L270.584 209.433L278.215 203.864V215.075ZM265.453 222.495L257.822 216.854L265.453 211.285V222.51V222.495ZM252.692 218.691V230.249L243.882 225.128L252.692 218.691ZM265.496 226.184V237.684L256.73 232.592L265.496 226.184ZM278.402 233.619V245.177L269.592 240.056L278.402 233.619ZM291.221 241.127V252.626L282.455 247.535L291.221 241.141V241.127ZM304.127 248.562V260.119L295.317 254.999L304.127 248.562ZM367.964 222.684L360.333 217.042L367.964 211.473V222.698V222.684ZM342.254 207.741L340.084 206.135L338.661 205.079L337.238 204.023L334.623 202.1L337.238 200.19L338.661 199.149L340.084 198.107L342.268 196.516V207.727L342.254 207.741ZM329.348 198.917L321.832 194.549L329.363 189.052V198.917H329.348ZM316.529 191.482L308.984 187.099L316.529 181.588V191.468V191.482ZM303.667 185.334L302.301 184.322L300.879 183.266L299.456 182.21L296.036 179.679L299.456 177.176L300.879 176.135L302.301 175.093L303.667 174.095V185.305V185.334ZM290.862 192.77L283.245 187.143L290.862 181.573V192.77ZM278.086 200.147L270.469 194.52L278.086 188.965V200.147ZM265.324 207.596L257.721 201.969L265.338 196.415V207.596H265.324ZM252.562 214.988L244.945 209.361L252.562 203.806V214.988ZM239.8 222.756L231.034 217.664L239.8 211.27V222.77V222.756ZM227.542 233.113L228.979 232.274L235.187 228.672L251.614 238.219L245.391 241.835L243.954 242.674L242.545 243.499L240.461 244.7L224.035 235.152L226.119 233.937L227.527 233.113H227.542ZM209.347 244.309V251.686L203.34 248.186V240.808L209.347 244.295V244.309ZM203.34 253.538V251.498L209.347 254.999V257.038L203.34 253.538ZM203.34 264.213V256.836L209.347 260.336V267.714L203.34 264.228V264.213ZM209.347 240.996L203.34 237.51V235.471L209.347 238.957V240.996ZM203.34 267.526L209.347 271.012V273.022L203.34 269.536V267.526ZM269.722 308.115V306.104L275.743 309.605V311.616L269.722 308.115ZM289.338 317.503L295.36 321.003V323.014L289.338 319.513V317.503ZM369.329 356.139L427.462 389.93V440.037L369.329 406.247V356.139ZM526.48 386.646L524.353 387.89L513.187 394.385L509.206 392.071L507.783 391.246L506.734 390.639L506.346 390.422L505.311 389.814L504.679 389.453L505.311 389.077L506.734 388.238V382.77L508.416 381.801L513.172 384.563L518.95 381.208L520.372 380.383L521.795 379.559L523.635 378.488L525.057 377.664L526.48 376.839L528.564 375.624L530.188 376.564L531.611 377.389L533.034 378.213L534.887 379.284L536.325 380.123L537.014 380.528L526.495 386.646H526.48ZM625.916 272.588V267.251V256.561V251.223V240.548V235.196V224.521V222.481L627.669 223.494L628.503 223.985V233.692V239.029V249.704V255.042V265.717V274.064L625.916 272.56V272.588ZM657.863 254.015V248.677V237.988V232.65V221.975V216.623V205.947V203.908L659.617 204.92L660.45 205.412V215.118V220.456V231.131V236.469V247.144V255.491L657.863 253.986V254.015ZM689.811 185.334L692.397 186.839V236.946L689.811 235.442V185.334ZM452.338 171.853L477.186 186.289L473.206 188.604V208.291L462.24 201.912L452.338 207.669V171.853ZM452.338 210.981L462.24 205.224L472.257 211.039L452.942 222.307L451.519 223.132L450.096 223.956L445.268 226.777L445.153 226.849L445.268 226.922L447.912 228.455L454.293 232.158L455.716 232.983L457.138 233.807L460.257 235.615L467.687 239.926L454.379 247.665V238.523L447.898 242.284L445.498 243.673V237.105H445.268L443.845 236.946L442.422 236.816L435.797 236.194L432.592 233.07V224.506L429.445 224.217L435.423 220.731H435.438L442.422 216.666L443.845 215.842L445.268 215.017L449.493 212.558L450.916 211.733L452.338 210.909V210.981ZM441.905 195.359L436.458 204.978V201.68L408.118 185.219L412.156 178.073L441.905 195.359ZM404.151 173.415L398.704 183.034V179.736L370.364 163.275L374.403 156.129L404.151 173.415ZM360.951 161.076V157.778L335.212 142.821L333.789 141.997L332.611 141.302L333.789 139.205L333.962 138.916L334.278 138.351L335.212 136.702L335.672 135.892L336.649 134.171L337.641 134.75L339.063 135.574L340.486 136.399L366.383 151.442L360.937 161.062L360.951 161.076ZM357.286 124.986V74.8782L359.844 76.3681V126.476L357.286 124.986ZM135.766 140.29L154.751 151.298V153.323L135.766 142.286V140.275V140.29ZM167.714 158.849L186.698 169.857V171.882L167.714 160.845V158.834V158.849ZM199.661 177.335L218.646 188.358V190.47L199.661 179.433V177.35V177.335ZM221.491 148.318L223.331 149.388V193.637L221.491 194.708V148.332V148.318ZM35.4972 267.786L27.7078 263.258V255.881L35.4972 260.409V267.786ZM24.8623 254.232V261.609L17.0732 257.082V249.704L24.8623 254.232ZM38.3427 269.435V262.058L46.132 266.585V273.963L38.3427 269.435ZM17.0732 265.732L24.8623 270.26V277.622L17.0732 273.095V265.732ZM27.7078 271.909L35.4972 276.436V283.799L27.7078 279.271V271.909ZM38.3427 278.085L46.132 282.613V289.976L38.3427 285.448V278.085ZM17.0732 262.419V260.38L46.1464 277.275V279.315L17.0732 262.419ZM46.1464 263.273L17.0732 246.378V244.352L46.1464 261.248V263.273ZM136.456 318.703L137.879 319.528L141.788 321.799L135.464 325.473L131.541 323.202L130.104 322.378L128.681 321.553L126.928 320.526L133.266 316.837L135.019 317.864L136.442 318.689L136.456 318.703ZM174.971 273.297L156.82 283.842V276.465L174.971 265.92V273.297ZM120.489 297.584L144.906 283.394V290.771L120.489 304.962V297.584ZM120.489 313.597L122.674 312.324V319.702L120.489 320.974V313.597ZM144.906 299.407V300.116L144.288 299.754L144.906 299.392V299.407ZM147.752 296.109V290.771V280.096V278.085L149.477 279.098H149.505V289.744V295.082V302.792L147.752 301.779V296.109ZM174.971 289.31L156.82 299.855V292.478L174.971 281.933V289.31ZM195.508 245.322L185.247 251.281L181.625 249.169L180.202 248.345L178.909 247.593L180.202 246.84L181.625 246.016L195.522 237.944V245.322H195.508ZM99.6941 305.092L91.9048 300.564V293.187L99.6941 297.714V305.092ZM89.0593 314.928L81.2699 310.4V303.023L89.0593 307.551V314.928ZM89.0593 298.901L81.2699 294.373V286.996L89.0593 291.523V298.901ZM70.6353 280.819L78.4244 285.347V292.724L70.6353 288.196V280.819ZM70.6353 296.847L78.4244 301.374V308.751L70.6353 304.224V296.861V296.847ZM99.6941 310.429L70.6353 293.548V291.509L99.6941 308.404V310.429ZM91.9048 316.592V309.214L99.6941 313.742V321.119L91.9048 316.592ZM99.6941 294.416L70.6353 277.521V275.481L99.6941 292.362V294.402V294.416ZM70.1465 238.306L79.0998 243.513V257.646L85.0208 261.074L91.0569 257.559V250.457L114.726 264.213V280.313L70.1465 254.406V238.306ZM81.9455 245.307L83.5981 246.276V256.952L81.9455 255.997V245.322V245.307ZM158.257 237.279L116.149 261.754L92.4796 247.998L134.573 223.523L134.789 223.392L158.473 237.163L158.257 237.293V237.279ZM122.746 216.637L80.6377 241.098L71.5693 235.832L113.677 211.357L113.893 211.227L122.961 216.507L122.746 216.637ZM17.0588 278.461V276.407L46.132 293.303V295.357L17.0588 278.461ZM48.9775 262.911L67.7752 273.832V307.927L48.9775 297.006V262.911ZM70.6353 309.59V307.536L99.6941 324.432V326.486L70.6353 309.59ZM102.554 294.04L113.174 300.217V334.311L102.554 328.135V294.04ZM153.73 320.092L145.338 315.217L143.915 314.393L142.492 313.568L140.724 312.541L139.301 311.717L137.879 310.892L136.815 310.27L131.527 307.204L130.104 306.379H130.09L128.681 305.555L126.942 304.542L136.858 298.77L138.597 299.783L140.02 300.607L141.443 301.432L144.906 303.443L146.329 304.267L147.752 305.092L149.218 305.945L149.491 306.104L150.914 306.929L152.336 307.753L152.394 307.782L153.816 308.607L153.975 308.694L155.254 309.431L155.412 309.518L156.835 310.343L163.661 314.306L153.745 320.078L153.73 320.092ZM186.698 259.063L198.354 252.294V234.646L184.097 226.343L181.64 227.775V222.843L200.509 233.807V267.873L186.698 259.845V259.063ZM212.207 240.606L219.781 245.003V279.069L212.207 274.671V240.606ZM220.686 282.917L221.204 282.613L222.095 282.092H222.109L222.655 281.774L222.986 281.586L223.546 281.268L225.285 280.255L225.716 280.009L226.708 279.43L228.131 278.606L228.993 278.1L230.416 277.275L231.839 276.451L234.569 274.874V283.495L231.839 285.072L230.962 285.578L230.402 285.896L229.539 286.403H229.525L228.993 286.721L228.117 287.227L228.016 287.285L225.702 285.94L221.204 283.322L220.586 282.96L220.686 282.902V282.917ZM224.279 293.563V297.714L222.627 296.76V292.623L224.279 293.577V293.563ZM221.204 299.233L225.702 301.852L234.555 296.702V306.987L237.63 308.78L230.33 313.019L213.918 303.472L221.204 299.233ZM211.489 305.367L228.275 315.131L223.676 321.741L206.89 311.977L211.489 305.367ZM260.236 298.105V295.617V286.591L255.882 284.059V265.992L266.876 272.371V306.437L260.236 302.575V298.076V298.105ZM278.589 279.199L286.493 283.784V317.85L278.589 313.265V279.199ZM298.206 290.598L304.227 294.098V328.164L298.206 324.663V290.598Z" fill="white" fill-opacity="0.2"/>
</svg>
